<mxfile host="app.diagrams.net" agent="Mozilla/5.0 (X11; Linux x86_64) AppleWebKit/537.36 (KHTML, like Gecko) Chrome/135.0.0.0 Safari/537.36" version="26.2.14">
  <diagram name="第 1 页" id="H79LbjuqNx5ivTG2I9Hq">
    <mxGraphModel dx="374" dy="509" grid="1" gridSize="10" guides="1" tooltips="1" connect="1" arrows="1" fold="1" page="1" pageScale="1" pageWidth="827" pageHeight="1169" math="1" shadow="0">
      <root>
        <mxCell id="0" />
        <mxCell id="1" parent="0" />
        <mxCell id="JZcMcMDeOa8LhST9rxYb-1" value="" style="ellipse;whiteSpace=wrap;html=1;aspect=fixed;fillColor=none;" vertex="1" parent="1">
          <mxGeometry x="170" y="330" width="140" height="140" as="geometry" />
        </mxCell>
        <mxCell id="JZcMcMDeOa8LhST9rxYb-6" style="edgeStyle=orthogonalEdgeStyle;rounded=0;orthogonalLoop=1;jettySize=auto;html=1;entryX=0;entryY=0.5;entryDx=0;entryDy=0;" edge="1" parent="1" source="JZcMcMDeOa8LhST9rxYb-2" target="JZcMcMDeOa8LhST9rxYb-3">
          <mxGeometry relative="1" as="geometry" />
        </mxCell>
        <mxCell id="JZcMcMDeOa8LhST9rxYb-2" value="" style="shape=ellipse;fillColor=#0065FF;strokeColor=none;html=1;sketch=0;" vertex="1" parent="1">
          <mxGeometry x="235" y="395" width="10" height="10" as="geometry" />
        </mxCell>
        <mxCell id="JZcMcMDeOa8LhST9rxYb-5" style="edgeStyle=orthogonalEdgeStyle;rounded=0;orthogonalLoop=1;jettySize=auto;html=1;entryX=1;entryY=0.5;entryDx=0;entryDy=0;" edge="1" parent="1" source="JZcMcMDeOa8LhST9rxYb-3" target="JZcMcMDeOa8LhST9rxYb-2">
          <mxGeometry relative="1" as="geometry" />
        </mxCell>
        <mxCell id="JZcMcMDeOa8LhST9rxYb-3" value="" style="shape=ellipse;fillColor=#0065FF;strokeColor=none;html=1;sketch=0;" vertex="1" parent="1">
          <mxGeometry x="275" y="395" width="10" height="10" as="geometry" />
        </mxCell>
      </root>
    </mxGraphModel>
  </diagram>
</mxfile>
